<svg width="112" height="112" viewBox="0 0 112 112" fill="none" xmlns="http://www.w3.org/2000/svg">
<g clip-path="url(#clip0_107:606)">
<g clip-path="url(#clip1_107:606)">
<path d="M74.9674 80.5435L69.193 74.193L63.4185 80.5435L74.9674 80.5435Z" fill="#23D1B7"/>
<path d="M48.5814 80.5435L42.8068 74.193L37.0325 80.5435L48.5814 80.5435Z" fill="#23D1B7"/>
<path d="M10.0237 82.9071C10.0237 98.9489 23.0747 112 39.1166 112L72.8832 112C88.9251 112 101.976 98.9489 101.976 82.9071C101.976 66.8653 88.9251 53.8142 72.8832 53.8142L39.1166 53.8142C23.0747 53.8145 10.0237 66.8653 10.0237 82.9071Z" fill="#23D1B7"/>
<path d="M70.9992 72.6876C70.9992 72.2038 70.7489 71.7562 70.3402 71.5089L54.9164 62.192C54.4999 61.9405 53.9826 61.9357 53.5619 62.1797C53.1412 62.4232 52.8809 62.8778 52.8809 63.3706V79.593L43.0348 73.6498C42.3946 73.2633 41.5684 73.4776 41.1885 74.1289C40.809 74.7796 41.0197 75.6206 41.6598 76.0066L51.5891 82.0003L41.6593 87.9972C41.0197 88.3837 40.8091 89.2247 41.189 89.8755C41.4403 90.3071 41.8887 90.5464 42.3486 90.5464C42.5822 90.5464 42.8195 90.4842 43.0353 90.3539L52.8809 84.4076V100.629C52.8809 101.122 53.1407 101.577 53.5619 101.82C53.7683 101.94 53.9982 102 54.2287 102C54.4665 102 54.7043 101.936 54.9164 101.808L70.3402 92.4954C70.7489 92.2482 70.9992 91.8005 70.9998 91.3167C70.9998 90.8329 70.7489 90.3853 70.3402 90.1381L56.8678 82.0003L70.3402 73.8657C70.7489 73.619 70.9992 73.1708 70.9992 72.6876ZM55.5754 98.2222V84.4081L67.0129 91.3162L55.5754 98.2222ZM55.5754 79.593V65.7784L67.0129 72.687L55.5754 79.593Z" fill="#252F49"/>
<path d="M10.9846 21.2805C9.83421 22.6809 10.0372 24.7486 11.4374 25.8985C12.8379 27.0489 14.9055 26.8461 16.0557 25.4457C25.913 13.4453 40.4365 6.56256 55.9023 6.56256C71.4797 6.56256 86.0701 13.5284 95.9325 25.6736C97.0748 27.0806 99.1413 27.2948 100.548 26.1525C101.347 25.5039 101.761 24.5578 101.761 23.6034C101.761 22.8767 101.521 22.145 101.027 21.5371C89.9129 7.85012 73.4655 6.59008e-05 55.9023 6.66685e-05C38.4651 6.74307e-05 22.0932 7.7565 10.9846 21.2805Z" fill="#23D1B7"/>
<path d="M23.4795 31.5252C22.3291 32.9257 22.5321 34.9933 23.9323 36.1432C25.3325 37.2937 27.4004 37.0909 28.5506 35.6904C35.3174 27.4525 45.2867 22.7275 55.9024 22.7275C66.5947 22.7275 76.6101 27.5092 83.3802 35.8468C84.5226 37.2538 86.5891 37.468 87.9959 36.3257C88.7945 35.6771 89.2088 34.731 89.2088 33.7766C89.2088 33.0499 88.9684 32.3182 88.4747 31.7103C80.4527 21.8311 68.5807 16.1653 55.9024 16.1653C43.3153 16.165 31.4976 21.7637 23.4795 31.5252Z" fill="#23D1B7"/>
<path d="M35.9658 41.7639C34.816 43.165 35.0195 45.232 36.4201 46.382C37.8208 47.532 39.8884 47.3285 41.0382 45.9279C44.7084 41.4568 50.1261 38.8924 55.9025 38.8924C61.7203 38.8924 67.163 41.4877 70.835 46.013C71.9769 47.4204 74.0434 47.6352 75.4504 46.4933C76.2495 45.8447 76.6642 44.8982 76.6642 43.9436C76.6642 43.2171 76.4243 42.486 75.9308 41.8781C71.0069 35.8102 63.7068 32.3301 55.9022 32.3301C48.1541 32.3299 40.8875 35.7687 35.9658 41.7639Z" fill="#23D1B7"/>
</g>
</g>
<defs>
<clipPath id="clip0_107:606">
<rect width="112" height="112" fill="white" transform="translate(0 112) rotate(-90)"/>
</clipPath>
<clipPath id="clip1_107:606">
<rect width="112" height="112" fill="white" transform="translate(0 112) rotate(-90)"/>
</clipPath>
</defs>
</svg>
