<svg width="75" height="75" viewBox="0 0 75 75" fill="none" xmlns="http://www.w3.org/2000/svg">
<path fill-rule="evenodd" clip-rule="evenodd" d="M47.3035 23.3893C47.1174 22.8022 46.8779 22.2328 46.589 21.6883C47.054 20.9142 48.0312 19.2851 48.0312 19.2851C48.2182 18.9738 48.1687 18.5752 47.9122 18.3187L45.6751 16.0816C45.4187 15.8244 45.0209 15.775 44.7088 15.9627L42.3017 17.4049C41.7602 17.1183 41.194 16.8811 40.6108 16.6965L39.8492 13.5995C39.761 13.2472 39.4451 13 39.082 13H35.918C35.5549 13 35.2382 13.2472 35.1509 13.5994C35.1509 13.5994 34.6233 15.761 34.39 16.6957C33.7681 16.8927 33.1672 17.1484 32.5948 17.4605L30.0989 15.9627C29.7868 15.7773 29.3898 15.8252 29.1325 16.0816L26.8954 18.3187C26.639 18.5752 26.5895 18.9738 26.7765 19.2851L28.3199 21.8629C28.0711 22.3534 27.8626 22.864 27.6965 23.3869L24.5995 24.1509C24.2472 24.239 24 24.5549 24 24.918V28.082C24 28.4451 24.2472 28.7618 24.5994 28.8491L27.6973 29.6107C27.885 30.2063 28.129 30.7849 28.4249 31.3403L27.0438 33.6423C26.8568 33.9536 26.9063 34.3522 27.1627 34.6086L29.3998 36.8457C29.6556 37.1015 30.0541 37.1501 30.3662 36.9647C30.3662 36.9647 31.915 36.0362 32.6736 35.582C33.2228 35.8747 33.7975 36.1165 34.39 36.3042L35.1509 39.4005C35.2382 39.7528 35.5549 40 35.918 40H39.082C39.4451 40 39.761 39.7528 39.8491 39.4006L40.61 36.3043C41.2195 36.1112 41.8066 35.8616 42.3651 35.5588C43.1445 36.0261 44.7087 36.9647 44.7087 36.9647C45.02 37.1509 45.4186 37.103 45.6751 36.8457L47.9122 34.6086C48.1686 34.3522 48.2181 33.9536 48.0312 33.6423L46.609 31.2731C46.8894 30.7408 47.122 30.1839 47.3035 29.6107L50.4005 28.8491C50.7528 28.761 51 28.4451 51 28.082V24.918C51 24.5549 50.7528 24.239 50.4006 24.1509L47.3035 23.3893ZM31.9629 26.5C31.9629 23.4472 34.4472 20.9629 37.5 20.9629C40.5528 20.9629 43.0371 23.4472 43.0371 26.5C43.0371 29.5528 40.5528 32.0371 37.5 32.0371C34.4472 32.0371 31.9629 29.5528 31.9629 26.5Z" fill="white"/>
<path d="M22.509 54.7734H18.9348L18.132 57H16.9719L20.2297 48.4688H21.2141L24.4777 57H23.3234L22.509 54.7734ZM19.2746 53.8477H22.175L20.7219 49.8574L19.2746 53.8477ZM26.9754 50.6602V57.7324C26.9754 58.9512 26.4227 59.5605 25.3172 59.5605C25.0789 59.5605 24.8582 59.5254 24.6551 59.4551V58.5879C24.7801 58.6191 24.9441 58.6348 25.1473 58.6348C25.3895 58.6348 25.573 58.5684 25.698 58.4355C25.827 58.3066 25.8914 58.0801 25.8914 57.7559V50.6602H26.9754ZM25.7801 48.9785C25.7801 48.8066 25.8328 48.6602 25.9383 48.5391C26.0477 48.4141 26.2059 48.3516 26.4129 48.3516C26.6238 48.3516 26.784 48.4121 26.8934 48.5332C27.0027 48.6543 27.0574 48.8027 27.0574 48.9785C27.0574 49.1543 27.0027 49.3008 26.8934 49.418C26.784 49.5352 26.6238 49.5938 26.4129 49.5938C26.202 49.5938 26.0437 49.5352 25.9383 49.418C25.8328 49.3008 25.7801 49.1543 25.7801 48.9785ZM33.0414 56.373C32.6195 56.8691 32.0004 57.1172 31.184 57.1172C30.5082 57.1172 29.9926 56.9219 29.6371 56.5312C29.2855 56.1367 29.1078 55.5547 29.1039 54.7852V50.6602H30.1879V54.7559C30.1879 55.7168 30.5785 56.1973 31.3598 56.1973C32.1879 56.1973 32.7387 55.8887 33.0121 55.2715V50.6602H34.0961V57H33.0648L33.0414 56.373ZM39.8398 55.3184C39.8398 55.0254 39.7285 54.7988 39.5059 54.6387C39.2871 54.4746 38.9023 54.334 38.3516 54.2168C37.8047 54.0996 37.3691 53.959 37.0449 53.7949C36.7246 53.6309 36.4863 53.4355 36.3301 53.209C36.1777 52.9824 36.1016 52.7129 36.1016 52.4004C36.1016 51.8809 36.3203 51.4414 36.7578 51.082C37.1992 50.7227 37.7617 50.543 38.4453 50.543C39.1641 50.543 39.7461 50.7285 40.1914 51.0996C40.6406 51.4707 40.8652 51.9453 40.8652 52.5234H39.7754C39.7754 52.2266 39.6484 51.9707 39.3945 51.7559C39.1445 51.541 38.8281 51.4336 38.4453 51.4336C38.0508 51.4336 37.7422 51.5195 37.5195 51.6914C37.2969 51.8633 37.1855 52.0879 37.1855 52.3652C37.1855 52.627 37.2891 52.8242 37.4961 52.957C37.7031 53.0898 38.0762 53.2168 38.6152 53.3379C39.1582 53.459 39.5977 53.6035 39.9336 53.7715C40.2695 53.9395 40.5176 54.1426 40.6777 54.3809C40.8418 54.6152 40.9238 54.9023 40.9238 55.2422C40.9238 55.8086 40.6973 56.2637 40.2441 56.6074C39.791 56.9473 39.2031 57.1172 38.4805 57.1172C37.9727 57.1172 37.5234 57.0273 37.1328 56.8477C36.7422 56.668 36.4355 56.418 36.2129 56.0977C35.9941 55.7734 35.8848 55.4238 35.8848 55.0488H36.9688C36.9883 55.4121 37.1328 55.7012 37.4023 55.916C37.6758 56.127 38.0352 56.2324 38.4805 56.2324C38.8906 56.2324 39.2188 56.1504 39.4648 55.9863C39.7148 55.8184 39.8398 55.5957 39.8398 55.3184ZM44.2066 49.125V50.6602H45.3902V51.498H44.2066V55.4297C44.2066 55.6836 44.2594 55.875 44.3648 56.0039C44.4703 56.1289 44.65 56.1914 44.9039 56.1914C45.0289 56.1914 45.2008 56.168 45.4195 56.1211V57C45.1344 57.0781 44.857 57.1172 44.5875 57.1172C44.1031 57.1172 43.7379 56.9707 43.4918 56.6777C43.2457 56.3848 43.1227 55.9688 43.1227 55.4297V51.498H41.9684V50.6602H43.1227V49.125H44.2066ZM49.6926 57.1172C48.8332 57.1172 48.134 56.8359 47.5949 56.2734C47.0559 55.707 46.7863 54.9512 46.7863 54.0059V53.8066C46.7863 53.1777 46.9055 52.6172 47.1437 52.125C47.3859 51.6289 47.7219 51.2422 48.1516 50.9648C48.5852 50.6836 49.0539 50.543 49.5578 50.543C50.382 50.543 51.0227 50.8145 51.4797 51.3574C51.9367 51.9004 52.1652 52.6777 52.1652 53.6895V54.1406H47.8703C47.8859 54.7656 48.0676 55.2715 48.4152 55.6582C48.7668 56.041 49.2121 56.2324 49.7512 56.2324C50.134 56.2324 50.4582 56.1543 50.7238 55.998C50.9895 55.8418 51.2219 55.6348 51.4211 55.377L52.0832 55.8926C51.552 56.709 50.7551 57.1172 49.6926 57.1172ZM49.5578 51.4336C49.1203 51.4336 48.7531 51.5938 48.4562 51.9141C48.1594 52.2305 47.9758 52.6758 47.9055 53.25H51.0812V53.168C51.05 52.6172 50.9016 52.1914 50.6359 51.8906C50.3703 51.5859 50.0109 51.4336 49.5578 51.4336ZM57.5164 55.3184C57.5164 55.0254 57.4051 54.7988 57.1824 54.6387C56.9637 54.4746 56.5789 54.334 56.0281 54.2168C55.4813 54.0996 55.0457 53.959 54.7215 53.7949C54.4012 53.6309 54.1629 53.4355 54.0066 53.209C53.8543 52.9824 53.7781 52.7129 53.7781 52.4004C53.7781 51.8809 53.9969 51.4414 54.4344 51.082C54.8758 50.7227 55.4383 50.543 56.1219 50.543C56.8406 50.543 57.4227 50.7285 57.868 51.0996C58.3172 51.4707 58.5418 51.9453 58.5418 52.5234H57.452C57.452 52.2266 57.325 51.9707 57.0711 51.7559C56.8211 51.541 56.5047 51.4336 56.1219 51.4336C55.7273 51.4336 55.4188 51.5195 55.1961 51.6914C54.9734 51.8633 54.8621 52.0879 54.8621 52.3652C54.8621 52.627 54.9656 52.8242 55.1727 52.957C55.3797 53.0898 55.7527 53.2168 56.2918 53.3379C56.8348 53.459 57.2742 53.6035 57.6102 53.7715C57.9461 53.9395 58.1941 54.1426 58.3543 54.3809C58.5184 54.6152 58.6004 54.9023 58.6004 55.2422C58.6004 55.8086 58.3738 56.2637 57.9207 56.6074C57.4676 56.9473 56.8797 57.1172 56.157 57.1172C55.6492 57.1172 55.2 57.0273 54.8094 56.8477C54.4188 56.668 54.1121 56.418 53.8895 56.0977C53.6707 55.7734 53.5613 55.4238 53.5613 55.0488H54.6453C54.6648 55.4121 54.8094 55.7012 55.0789 55.916C55.3523 56.127 55.7117 56.2324 56.157 56.2324C56.5672 56.2324 56.8953 56.1504 57.1414 55.9863C57.3914 55.8184 57.5164 55.5957 57.5164 55.3184Z" fill="white"/>
</svg>
