<svg width="225" height="29" viewBox="0 0 225 29" fill="none" xmlns="http://www.w3.org/2000/svg">
<path d="M40.3517 13.7094C40.2487 13.5985 37.7604 11.0468 34.0517 8.4634C29.3525 5.17472 24.9623 3.40755 21.0792 3.19358V0.792453C21.0792 0.356604 20.7226 0 20.2868 0C19.8509 0 19.4943 0.356604 19.4943 0.792453V3.19358C18.5434 3.24906 17.5449 3.3917 16.5385 3.63736C15.3736 3.91472 14.1532 4.31887 12.9249 4.84189C10.8883 5.70566 8.73283 6.92604 6.52189 8.4634C2.95585 10.9517 0.499245 13.4321 0.229811 13.7094C0.0792453 13.86 0 14.0581 0 14.2642C0 14.4702 0.0792453 14.6683 0.229811 14.8189C0.50717 15.1042 3.05094 17.6638 6.70415 20.1917C6.83887 20.2868 6.99736 20.3343 7.15585 20.3343C7.41736 20.3343 7.66302 20.2075 7.80566 19.9936C7.92453 19.8192 7.97208 19.6053 7.93245 19.3992C7.89283 19.1932 7.78189 19.0109 7.60755 18.8921C5.68981 17.5608 4.08906 16.2215 3.08264 15.334C2.67849 14.9694 2.29019 14.6128 1.92566 14.2721C2.94 13.3053 5.04792 11.3955 7.77396 9.53321C10.706 7.50453 15.1358 5.04792 19.4943 4.77849V6.77547C15.6906 7.1717 12.7585 10.3811 12.7585 14.2642C12.7585 18.1472 15.6906 21.3566 19.4943 21.7528V23.7498C17.6717 23.6389 15.7302 23.1475 13.6777 22.2838C13.5826 22.2442 13.4796 22.2204 13.3687 22.2204C13.0438 22.2204 12.7585 22.4106 12.6396 22.7117C12.5604 22.9098 12.5604 23.1238 12.6396 23.3219C12.7189 23.52 12.8694 23.6706 13.0675 23.7498C14.28 24.257 15.4766 24.6453 16.6177 24.9147C17.6004 25.1445 18.5513 25.2872 19.5023 25.3347V27.7358C19.5023 28.1717 19.8589 28.5283 20.2947 28.5283C20.7306 28.5283 21.0872 28.1717 21.0872 27.7358V25.3347C24.9702 25.1208 29.3604 23.3536 34.0596 20.0649C37.7604 17.4736 40.2487 14.9219 40.3596 14.8189C40.6449 14.5098 40.6449 14.0185 40.3517 13.7094ZM19.4943 16.5068C18.5434 16.1819 17.9094 15.3023 17.9094 14.2642C17.9094 13.226 18.5434 12.3464 19.4943 12.0215V16.5068ZM19.4943 10.3811C17.6717 10.7457 16.3245 12.3464 16.3245 14.2642C16.3245 16.1819 17.6717 17.7747 19.4943 18.1472V20.1521C16.5623 19.7638 14.3434 17.2675 14.3434 14.2642C14.3434 11.2608 16.5623 8.76453 19.4943 8.37623V10.3811ZM21.0792 23.7498V4.77849C25.517 5.05585 30.0419 7.5917 33.1245 9.74717C35.7079 11.554 37.7208 13.3766 38.6479 14.2642C36.5162 16.3008 28.6868 23.2823 21.0792 23.7498Z" fill="#23D1B7"/>
<path d="M10.1751 22.2283C10.6128 22.2283 10.9676 21.8735 10.9676 21.4358C10.9676 20.9982 10.6128 20.6434 10.1751 20.6434C9.73748 20.6434 9.38269 20.9982 9.38269 21.4358C9.38269 21.8735 9.73748 22.2283 10.1751 22.2283Z" fill="#23D1B7"/>
<path d="M31.0642 15.0566C31.5018 15.0566 31.8566 14.7018 31.8566 14.2641C31.8566 13.8264 31.5018 13.4716 31.0642 13.4716C30.6265 13.4716 30.2717 13.8264 30.2717 14.2641C30.2717 14.7018 30.6265 15.0566 31.0642 15.0566Z" fill="#23D1B7"/>
<path d="M34.6302 15.0566C35.0679 15.0566 35.4227 14.7018 35.4227 14.2641C35.4227 13.8264 35.0679 13.4716 34.6302 13.4716C34.1926 13.4716 33.8378 13.8264 33.8378 14.2641C33.8378 14.7018 34.1926 15.0566 34.6302 15.0566Z" fill="#23D1B7"/>
<path d="M27.4981 12.4019C27.0623 12.4019 26.7057 12.7585 26.7057 13.1943V15.334C26.7057 15.7698 27.0623 16.1264 27.4981 16.1264C27.934 16.1264 28.2906 15.7698 28.2906 15.334V13.1943C28.2906 12.7585 27.934 12.4019 27.4981 12.4019Z" fill="#23D1B7"/>
<path d="M27.4981 19.6925C27.9358 19.6925 28.2906 19.3377 28.2906 18.9C28.2906 18.4623 27.9358 18.1075 27.4981 18.1075C27.0605 18.1075 26.7057 18.4623 26.7057 18.9C26.7057 19.3377 27.0605 19.6925 27.4981 19.6925Z" fill="#23D1B7"/>
<path d="M27.4981 10.4208C27.9358 10.4208 28.2906 10.066 28.2906 9.6283C28.2906 9.19064 27.9358 8.83585 27.4981 8.83585C27.0605 8.83585 26.7057 9.19064 26.7057 9.6283C26.7057 10.066 27.0605 10.4208 27.4981 10.4208Z" fill="#23D1B7"/>
<path d="M23.9321 8.71696C24.3698 8.71696 24.7246 8.36216 24.7246 7.9245C24.7246 7.48684 24.3698 7.13205 23.9321 7.13205C23.4944 7.13205 23.1396 7.48684 23.1396 7.9245C23.1396 8.36216 23.4944 8.71696 23.9321 8.71696Z" fill="#23D1B7"/>
<path d="M23.9321 10.6981C23.4963 10.6981 23.1396 11.0547 23.1396 11.4905V17.0377C23.1396 17.4736 23.4963 17.8302 23.9321 17.8302C24.368 17.8302 24.7246 17.4736 24.7246 17.0377V11.4905C24.7246 11.0547 24.368 10.6981 23.9321 10.6981Z" fill="#23D1B7"/>
<path d="M23.9321 21.3962C24.3698 21.3962 24.7246 21.0414 24.7246 20.6038C24.7246 20.1661 24.3698 19.8113 23.9321 19.8113C23.4944 19.8113 23.1396 20.1661 23.1396 20.6038C23.1396 21.0414 23.4944 21.3962 23.9321 21.3962Z" fill="#23D1B7"/>
<path d="M3.249 5.54717C3.68484 5.54717 4.04145 5.19057 4.04145 4.75472V1.58491H7.21126C7.64711 1.58491 8.00371 1.2283 8.00371 0.792453C8.00371 0.356604 7.64711 0 7.21126 0H3.249C2.81315 0 2.45654 0.356604 2.45654 0.792453V4.75472C2.45654 5.19057 2.81315 5.54717 3.249 5.54717Z" fill="#23D1B7"/>
<path d="M33.3623 1.58491H36.5321V4.75472C36.5321 5.19057 36.8887 5.54717 37.3245 5.54717C37.7604 5.54717 38.117 5.19057 38.117 4.75472V0.792453C38.117 0.356604 37.7604 0 37.3245 0H33.3623C32.9264 0 32.5698 0.356604 32.5698 0.792453C32.5698 1.2283 32.9264 1.58491 33.3623 1.58491Z" fill="#23D1B7"/>
<path d="M37.3245 22.9811C36.8887 22.9811 36.5321 23.3377 36.5321 23.7736V26.9434H33.3623C32.9264 26.9434 32.5698 27.3 32.5698 27.7358C32.5698 28.1717 32.9264 28.5283 33.3623 28.5283H37.3245C37.7604 28.5283 38.117 28.1717 38.117 27.7358V23.7736C38.117 23.3377 37.7604 22.9811 37.3245 22.9811Z" fill="#23D1B7"/>
<path d="M7.21126 26.9434H4.04145V23.7736C4.04145 23.3377 3.68484 22.9811 3.249 22.9811C2.81315 22.9811 2.45654 23.3377 2.45654 23.7736V27.7358C2.45654 28.1717 2.81315 28.5283 3.249 28.5283H7.21126C7.64711 28.5283 8.00371 28.1717 8.00371 27.7358C8.00371 27.3 7.64711 26.9434 7.21126 26.9434Z" fill="#23D1B7"/>
<path d="M62.5034 19.7817H56.3975L55.2367 23.2641H51.5337L57.8253 6.36262H61.0524L67.3789 23.2641H63.6759L62.5034 19.7817ZM57.3378 16.9609H61.5632L59.4389 10.6344L57.3378 16.9609Z" fill="#23D1B7"/>
<path d="M75.5394 19.7933C75.5394 19.3831 75.3344 19.062 74.9242 18.8298C74.5218 18.5899 73.8717 18.3771 72.974 18.1914C69.9869 17.5645 68.4933 16.2954 68.4933 14.3839C68.4933 13.2695 68.9537 12.3408 69.8746 11.5979C70.8033 10.8472 72.0144 10.4719 73.508 10.4719C75.1022 10.4719 76.3752 10.8472 77.3271 11.5979C78.2867 12.3486 78.7665 13.3237 78.7665 14.5232H75.4117C75.4117 14.0434 75.257 13.6487 74.9474 13.3391C74.6379 13.0219 74.1542 12.8632 73.4964 12.8632C72.9315 12.8632 72.4942 12.9909 72.1847 13.2463C71.8751 13.5017 71.7203 13.8267 71.7203 14.2214C71.7203 14.5928 71.8945 14.8946 72.2427 15.1268C72.5987 15.3512 73.1946 15.5486 74.0304 15.7188C74.8662 15.8813 75.5704 16.0671 76.1431 16.276C77.9152 16.9261 78.8013 18.0521 78.8013 19.654C78.8013 20.7993 78.3099 21.728 77.3271 22.44C76.3443 23.1442 75.0751 23.4963 73.5196 23.4963C72.4671 23.4963 71.5307 23.3106 70.7104 22.9391C69.8979 22.5599 69.2594 22.0453 68.7951 21.3952C68.3307 20.7374 68.0986 20.0293 68.0986 19.2709H71.2792C71.3102 19.8668 71.5307 20.3234 71.9409 20.6407C72.3511 20.958 72.9005 21.1166 73.5893 21.1166C74.2316 21.1166 74.7153 20.9967 75.0403 20.7568C75.3731 20.5091 75.5394 20.188 75.5394 19.7933Z" fill="#23D1B7"/>
<path d="M84.5126 23.2641H81.1462V10.7041H84.5126V23.2641ZM80.9489 7.45379C80.9489 6.95076 81.1152 6.53674 81.448 6.21171C81.7885 5.88668 82.249 5.72416 82.8294 5.72416C83.4021 5.72416 83.8586 5.88668 84.1992 6.21171C84.5397 6.53674 84.7099 6.95076 84.7099 7.45379C84.7099 7.96455 84.5358 8.38244 84.1875 8.70747C83.847 9.0325 83.3943 9.19502 82.8294 9.19502C82.2645 9.19502 81.8079 9.0325 81.4596 8.70747C81.1191 8.38244 80.9489 7.96455 80.9489 7.45379Z" fill="#23D1B7"/>
<path d="M94.0893 19.7933C94.0893 19.3831 93.8843 19.062 93.4741 18.8298C93.0717 18.5899 92.4216 18.3771 91.5239 18.1914C88.5367 17.5645 87.0432 16.2954 87.0432 14.3839C87.0432 13.2695 87.5036 12.3408 88.4245 11.5979C89.3532 10.8472 90.5643 10.4719 92.0579 10.4719C93.6521 10.4719 94.9251 10.8472 95.877 11.5979C96.8366 12.3486 97.3164 13.3237 97.3164 14.5232H93.9616C93.9616 14.0434 93.8069 13.6487 93.4973 13.3391C93.1878 13.0219 92.7041 12.8632 92.0463 12.8632C91.4814 12.8632 91.0441 12.9909 90.7346 13.2463C90.425 13.5017 90.2702 13.8267 90.2702 14.2214C90.2702 14.5928 90.4444 14.8946 90.7926 15.1268C91.1486 15.3512 91.7445 15.5486 92.5803 15.7188C93.4161 15.8813 94.1203 16.0671 94.693 16.276C96.4651 16.9261 97.3512 18.0521 97.3512 19.654C97.3512 20.7993 96.8598 21.728 95.877 22.44C94.8942 23.1442 93.625 23.4963 92.0695 23.4963C91.017 23.4963 90.0806 23.3106 89.2603 22.9391C88.4478 22.5599 87.8093 22.0453 87.345 21.3952C86.8806 20.7374 86.6485 20.0293 86.6485 19.2709H89.8291C89.8601 19.8668 90.0806 20.3234 90.4908 20.6407C90.901 20.958 91.4504 21.1166 92.1392 21.1166C92.7815 21.1166 93.2652 20.9967 93.5902 20.7568C93.923 20.5091 94.0893 20.188 94.0893 19.7933Z" fill="#23D1B7"/>
<path d="M103.538 7.6163V10.7041H105.686V13.165H103.538V19.4334C103.538 19.8978 103.627 20.2305 103.805 20.4317C103.983 20.633 104.324 20.7336 104.827 20.7336C105.198 20.7336 105.527 20.7065 105.814 20.6523V23.1945C105.156 23.3957 104.479 23.4963 103.782 23.4963C101.43 23.4963 100.23 22.3084 100.184 19.9326V13.165H98.3495V10.7041H100.184V7.6163H103.538Z" fill="#23D1B7"/>
<path d="M113.336 23.4963C111.494 23.4963 109.993 22.9314 108.832 21.8015C107.679 20.6717 107.102 19.1665 107.102 17.2859V16.9609C107.102 15.6995 107.346 14.5735 107.833 13.5829C108.321 12.5846 109.01 11.8185 109.9 11.2845C110.797 10.7428 111.819 10.4719 112.964 10.4719C114.682 10.4719 116.033 11.0136 117.016 12.0971C118.006 13.1805 118.501 14.7166 118.501 16.7055V18.0753H110.503C110.612 18.8956 110.937 19.5534 111.478 20.0487C112.028 20.544 112.72 20.7916 113.556 20.7916C114.849 20.7916 115.859 20.3234 116.586 19.387L118.234 21.2327C117.731 21.9447 117.05 22.5019 116.191 22.9043C115.332 23.299 114.38 23.4963 113.336 23.4963ZM112.953 13.1882C112.287 13.1882 111.745 13.4127 111.328 13.8615C110.917 14.3104 110.654 14.9527 110.538 15.7885H115.205V15.5215C115.189 14.7786 114.988 14.2059 114.601 13.8035C114.214 13.3933 113.665 13.1882 112.953 13.1882Z" fill="#23D1B7"/>
<path d="M123.505 10.7041L123.609 12.1551C124.507 11.033 125.71 10.4719 127.219 10.4719C128.55 10.4719 129.541 10.8627 130.191 11.6443C130.841 12.426 131.174 13.5945 131.189 15.15V23.2641H127.834V15.2313C127.834 14.5193 127.68 14.0047 127.37 13.6874C127.06 13.3624 126.546 13.1998 125.826 13.1998C124.882 13.1998 124.174 13.6023 123.702 14.4071V23.2641H120.347V10.7041H123.505Z" fill="#23D1B7"/>
<path d="M137.759 7.6163V10.7041H139.907V13.165H137.759V19.4334C137.759 19.8978 137.848 20.2305 138.026 20.4317C138.204 20.633 138.545 20.7336 139.048 20.7336C139.419 20.7336 139.748 20.7065 140.035 20.6523V23.1945C139.377 23.3957 138.7 23.4963 138.003 23.4963C135.651 23.4963 134.451 22.3084 134.405 19.9326V13.165H132.571V10.7041H134.405V7.6163H137.759Z" fill="#23D1B7"/>
<path d="M147.557 23.4963C145.715 23.4963 144.214 22.9314 143.053 21.8015C141.9 20.6717 141.323 19.1665 141.323 17.2859V16.9609C141.323 15.6995 141.567 14.5735 142.054 13.5829C142.542 12.5846 143.231 11.8185 144.121 11.2845C145.018 10.7428 146.04 10.4719 147.185 10.4719C148.903 10.4719 150.254 11.0136 151.236 12.0971C152.227 13.1805 152.722 14.7166 152.722 16.7055V18.0753H144.724C144.833 18.8956 145.158 19.5534 145.699 20.0487C146.249 20.544 146.941 20.7916 147.777 20.7916C149.07 20.7916 150.08 20.3234 150.807 19.387L152.455 21.2327C151.952 21.9447 151.271 22.5019 150.412 22.9043C149.553 23.299 148.601 23.4963 147.557 23.4963ZM147.174 13.1882C146.508 13.1882 145.966 13.4127 145.548 13.8615C145.138 14.3104 144.875 14.9527 144.759 15.7885H149.426V15.5215C149.41 14.7786 149.209 14.2059 148.822 13.8035C148.435 13.3933 147.886 13.1882 147.174 13.1882Z" fill="#23D1B7"/>
<path d="M167.024 19.0736L170.854 6.36262H174.731L168.846 23.2641H165.213L159.351 6.36262H163.216L167.024 19.0736Z" fill="#23D1B7"/>
<path d="M179.653 23.2641H176.287V10.7041H179.653V23.2641ZM176.09 7.45379C176.09 6.95076 176.256 6.53674 176.589 6.21171C176.929 5.88668 177.39 5.72416 177.97 5.72416C178.543 5.72416 178.999 5.88668 179.34 6.21171C179.68 6.53674 179.851 6.95076 179.851 7.45379C179.851 7.96455 179.677 8.38244 179.328 8.70747C178.988 9.0325 178.535 9.19502 177.97 9.19502C177.405 9.19502 176.949 9.0325 176.6 8.70747C176.26 8.38244 176.09 7.96455 176.09 7.45379Z" fill="#23D1B7"/>
<path d="M189.23 19.7933C189.23 19.3831 189.025 19.062 188.615 18.8298C188.212 18.5899 187.562 18.3771 186.665 18.1914C183.678 17.5645 182.184 16.2954 182.184 14.3839C182.184 13.2695 182.644 12.3408 183.565 11.5979C184.494 10.8472 185.705 10.4719 187.199 10.4719C188.793 10.4719 190.066 10.8472 191.018 11.5979C191.977 12.3486 192.457 13.3237 192.457 14.5232H189.102C189.102 14.0434 188.948 13.6487 188.638 13.3391C188.329 13.0219 187.845 12.8632 187.187 12.8632C186.622 12.8632 186.185 12.9909 185.875 13.2463C185.566 13.5017 185.411 13.8267 185.411 14.2214C185.411 14.5928 185.585 14.8946 185.933 15.1268C186.289 15.3512 186.885 15.5486 187.721 15.7188C188.557 15.8813 189.261 16.0671 189.834 16.276C191.606 16.9261 192.492 18.0521 192.492 19.654C192.492 20.7993 192.001 21.728 191.018 22.44C190.035 23.1442 188.766 23.4963 187.21 23.4963C186.158 23.4963 185.221 23.3106 184.401 22.9391C183.589 22.5599 182.95 22.0453 182.486 21.3952C182.021 20.7374 181.789 20.0293 181.789 19.2709H184.97C185.001 19.8668 185.221 20.3234 185.632 20.6407C186.042 20.958 186.591 21.1166 187.28 21.1166C187.922 21.1166 188.406 20.9967 188.731 20.7568C189.064 20.5091 189.23 20.188 189.23 19.7933Z" fill="#23D1B7"/>
<path d="M202.185 21.9872C201.357 22.9933 200.211 23.4963 198.749 23.4963C197.402 23.4963 196.373 23.1094 195.661 22.3355C194.957 21.5616 194.597 20.4279 194.581 18.9343V10.7041H197.936V18.8182C197.936 20.1261 198.532 20.78 199.724 20.78C200.862 20.78 201.643 20.3853 202.069 19.596V10.7041H205.435V23.2641H202.278L202.185 21.9872Z" fill="#23D1B7"/>
<path d="M215.244 23.2641C215.089 22.9623 214.977 22.587 214.907 22.1382C214.095 23.0436 213.039 23.4963 211.738 23.4963C210.508 23.4963 209.486 23.1403 208.674 22.4284C207.869 21.7164 207.467 20.8187 207.467 19.7353C207.467 18.4042 207.958 17.3827 208.941 16.6707C209.931 15.9587 211.359 15.5989 213.224 15.5911H214.768V14.8714C214.768 14.291 214.617 13.8267 214.315 13.4784C214.021 13.1302 213.553 12.9561 212.911 12.9561C212.346 12.9561 211.901 13.0915 211.576 13.3624C211.259 13.6332 211.1 14.0047 211.1 14.4767H207.745C207.745 13.7493 207.97 13.076 208.418 12.4569C208.867 11.8378 209.502 11.3541 210.322 11.0059C211.143 10.6499 212.063 10.4719 213.085 10.4719C214.633 10.4719 215.859 10.8627 216.765 11.6443C217.678 12.4182 218.135 13.5094 218.135 14.9179V20.3621C218.142 21.5539 218.309 22.4554 218.634 23.0668V23.2641H215.244ZM212.47 20.9309C212.965 20.9309 213.422 20.8226 213.839 20.6059C214.257 20.3814 214.567 20.0835 214.768 19.712V17.5529H213.514C211.835 17.5529 210.941 18.1333 210.833 19.2941L210.821 19.4915C210.821 19.9094 210.968 20.2538 211.262 20.5246C211.557 20.7955 211.959 20.9309 212.47 20.9309Z" fill="#23D1B7"/>
<path d="M224.252 23.2641H220.886V5.43396H224.252V23.2641Z" fill="#23D1B7"/>
</svg>
