<svg width="75" height="75" viewBox="0 0 75 75" fill="none" xmlns="http://www.w3.org/2000/svg">
<path d="M18.9102 57V48.4688H21.6992C22.625 48.4688 23.3203 48.6602 23.7852 49.043C24.2539 49.4258 24.4883 49.9922 24.4883 50.7422C24.4883 51.1406 24.375 51.4941 24.1484 51.8027C23.9219 52.1074 23.6133 52.3438 23.2227 52.5117C23.6836 52.6406 24.0469 52.8867 24.3125 53.25C24.582 53.6094 24.7168 54.0391 24.7168 54.5391C24.7168 55.3047 24.4688 55.9062 23.9727 56.3438C23.4766 56.7812 22.7754 57 21.8691 57H18.9102ZM20.0352 53.0098V56.0801H21.8926C22.416 56.0801 22.8281 55.9453 23.1289 55.6758C23.4336 55.4023 23.5859 55.0273 23.5859 54.5508C23.5859 53.5234 23.0273 53.0098 21.9102 53.0098H20.0352ZM20.0352 52.1074H21.7344C22.2266 52.1074 22.6191 51.9844 22.9121 51.7383C23.209 51.4922 23.3574 51.1582 23.3574 50.7363C23.3574 50.2676 23.2207 49.9277 22.9473 49.7168C22.6738 49.502 22.2578 49.3945 21.6992 49.3945H20.0352V52.1074ZM30.5309 56.373C30.109 56.8691 29.4898 57.1172 28.6734 57.1172C27.9977 57.1172 27.482 56.9219 27.1266 56.5312C26.775 56.1367 26.5973 55.5547 26.5934 54.7852V50.6602H27.6773V54.7559C27.6773 55.7168 28.068 56.1973 28.8492 56.1973C29.6773 56.1973 30.2281 55.8887 30.5016 55.2715V50.6602H31.5855V57H30.5543L30.5309 56.373ZM37.3293 55.3184C37.3293 55.0254 37.218 54.7988 36.9953 54.6387C36.7766 54.4746 36.3918 54.334 35.841 54.2168C35.2941 54.0996 34.8586 53.959 34.5344 53.7949C34.2141 53.6309 33.9758 53.4355 33.8195 53.209C33.6672 52.9824 33.591 52.7129 33.591 52.4004C33.591 51.8809 33.8098 51.4414 34.2473 51.082C34.6887 50.7227 35.2512 50.543 35.9348 50.543C36.6535 50.543 37.2355 50.7285 37.6809 51.0996C38.1301 51.4707 38.3547 51.9453 38.3547 52.5234H37.2648C37.2648 52.2266 37.1379 51.9707 36.884 51.7559C36.634 51.541 36.3176 51.4336 35.9348 51.4336C35.5402 51.4336 35.2316 51.5195 35.009 51.6914C34.7863 51.8633 34.675 52.0879 34.675 52.3652C34.675 52.627 34.7785 52.8242 34.9855 52.957C35.1926 53.0898 35.5656 53.2168 36.1047 53.3379C36.6477 53.459 37.0871 53.6035 37.423 53.7715C37.759 53.9395 38.007 54.1426 38.1672 54.3809C38.3312 54.6152 38.4133 54.9023 38.4133 55.2422C38.4133 55.8086 38.1867 56.2637 37.7336 56.6074C37.2805 56.9473 36.6926 57.1172 35.9699 57.1172C35.4621 57.1172 35.0129 57.0273 34.6223 56.8477C34.2316 56.668 33.925 56.418 33.7023 56.0977C33.4836 55.7734 33.3742 55.4238 33.3742 55.0488H34.4582C34.4777 55.4121 34.6223 55.7012 34.8918 55.916C35.1652 56.127 35.5246 56.2324 35.9699 56.2324C36.3801 56.2324 36.7082 56.1504 36.9543 55.9863C37.2043 55.8184 37.3293 55.5957 37.3293 55.3184ZM42.7684 56.2324C43.1551 56.2324 43.493 56.1152 43.782 55.8809C44.0711 55.6465 44.2313 55.3535 44.2625 55.002H45.2879C45.2684 55.3652 45.1434 55.7109 44.9129 56.0391C44.6824 56.3672 44.3738 56.6289 43.9871 56.8242C43.6043 57.0195 43.198 57.1172 42.7684 57.1172C41.9051 57.1172 41.2176 56.8301 40.7059 56.2559C40.198 55.6777 39.9441 54.8887 39.9441 53.8887V53.707C39.9441 53.0898 40.0574 52.541 40.284 52.0605C40.5105 51.5801 40.8348 51.207 41.2566 50.9414C41.6824 50.6758 42.1844 50.543 42.7625 50.543C43.4734 50.543 44.0633 50.7559 44.532 51.1816C45.0047 51.6074 45.2566 52.1602 45.2879 52.8398H44.2625C44.2313 52.4297 44.075 52.0938 43.7938 51.832C43.5164 51.5664 43.1727 51.4336 42.7625 51.4336C42.2117 51.4336 41.784 51.6328 41.4793 52.0312C41.1785 52.4258 41.0281 52.998 41.0281 53.748V53.9531C41.0281 54.6836 41.1785 55.2461 41.4793 55.6406C41.7801 56.0352 42.2098 56.2324 42.7684 56.2324ZM50.8207 57C50.7582 56.875 50.7074 56.6523 50.6684 56.332C50.1645 56.8555 49.5629 57.1172 48.8637 57.1172C48.2387 57.1172 47.725 56.9414 47.3227 56.5898C46.9242 56.2344 46.725 55.7852 46.725 55.2422C46.725 54.582 46.975 54.0703 47.475 53.707C47.9789 53.3398 48.6859 53.1562 49.5961 53.1562H50.6508V52.6582C50.6508 52.2793 50.5375 51.9785 50.3109 51.7559C50.0844 51.5293 49.7504 51.416 49.309 51.416C48.9223 51.416 48.598 51.5137 48.3363 51.709C48.0746 51.9043 47.9437 52.1406 47.9437 52.418H46.8539C46.8539 52.1016 46.9652 51.7969 47.1879 51.5039C47.4145 51.207 47.7191 50.9727 48.102 50.8008C48.4887 50.6289 48.9125 50.543 49.3734 50.543C50.1039 50.543 50.6762 50.7266 51.0902 51.0938C51.5043 51.457 51.7191 51.959 51.7348 52.5996V55.5176C51.7348 56.0996 51.809 56.5625 51.9574 56.9062V57H50.8207ZM49.0219 56.1738C49.3617 56.1738 49.684 56.0859 49.9887 55.9102C50.2934 55.7344 50.5141 55.5059 50.6508 55.2246V53.9238H49.8012C48.473 53.9238 47.809 54.3125 47.809 55.0898C47.809 55.4297 47.9223 55.6953 48.1488 55.8867C48.3754 56.0781 48.6664 56.1738 49.0219 56.1738ZM56.8984 51.6328C56.7344 51.6055 56.5566 51.5918 56.3652 51.5918C55.6543 51.5918 55.1719 51.8945 54.918 52.5V57H53.834V50.6602H54.8887L54.9062 51.3926C55.2617 50.8262 55.7656 50.543 56.418 50.543C56.6289 50.543 56.7891 50.5703 56.8984 50.625V51.6328Z" fill="white"/>
<path fill-rule="evenodd" clip-rule="evenodd" d="M44.7074 31.1691C46.1265 29.2073 46.8925 26.8195 46.8899 24.3659C46.8899 18.0988 41.98 13 35.945 13C29.9099 13 25 18.0988 25 24.3659C25 30.633 29.9099 35.7318 35.945 35.7318C38.3076 35.7345 40.6071 34.939 42.4961 33.4654L48.3902 39.5862C48.6886 39.8631 49.0777 40.011 49.4777 39.9994C49.8778 39.9877 50.2583 39.8175 50.5413 39.5237C50.8243 39.2298 50.9882 38.8346 50.9994 38.4192C51.0106 38.0038 50.8682 37.5997 50.6015 37.2898L44.7074 31.1691ZM29.4447 19.8555C30.3037 18.5204 31.5247 17.4799 32.9532 16.8654C34.3817 16.2509 35.9536 16.0901 37.4701 16.4034C38.9867 16.7167 40.3797 17.4899 41.473 18.6253C42.5663 19.7607 43.3109 21.2072 43.6126 22.7821C43.9142 24.3569 43.7594 25.9893 43.1677 27.4727C42.576 28.9562 41.5739 30.2241 40.2883 31.1162C39.0027 32.0083 37.4912 32.4844 35.945 32.4844C33.8723 32.4818 31.8853 31.6257 30.4197 30.1037C28.9541 28.5818 28.1296 26.5183 28.1271 24.3659C28.1271 22.7602 28.5856 21.1906 29.4447 19.8555Z" fill="white"/>
</svg>
