<svg width="75" height="75" viewBox="0 0 75 75" fill="none" xmlns="http://www.w3.org/2000/svg">
<rect y="71" width="75" height="4" fill="#44F0D6"/>
<path d="M13.3754 57V48.4688H16.0004C16.7504 48.4688 17.4203 48.6387 18.0102 48.9785C18.6039 49.3145 19.0668 49.7949 19.3988 50.4199C19.7309 51.041 19.8969 51.748 19.8969 52.541V52.9336C19.8969 53.7266 19.7328 54.4316 19.4047 55.0488C19.0805 55.666 18.6215 56.1445 18.0277 56.4844C17.434 56.8242 16.7641 56.9961 16.018 57H13.3754ZM15.1332 49.8926V55.5879H15.9828C16.6703 55.5879 17.1957 55.3633 17.559 54.9141C17.9223 54.4648 18.1078 53.8223 18.1156 52.9863V52.5352C18.1156 51.668 17.9359 51.0117 17.5766 50.5664C17.2172 50.1172 16.6918 49.8926 16.0004 49.8926H15.1332ZM24.3867 57.1172C23.457 57.1172 22.6992 56.832 22.1133 56.2617C21.5312 55.6914 21.2402 54.9316 21.2402 53.9824V53.8184C21.2402 53.1816 21.3633 52.6133 21.6094 52.1133C21.8555 51.6094 22.2031 51.2227 22.6523 50.9531C23.1055 50.6797 23.6211 50.543 24.1992 50.543C25.0664 50.543 25.748 50.8164 26.2441 51.3633C26.7441 51.9102 26.9941 52.6855 26.9941 53.6895V54.3809H22.957C23.0117 54.7949 23.1758 55.127 23.4492 55.377C23.7266 55.627 24.0762 55.752 24.498 55.752C25.1504 55.752 25.6602 55.5156 26.0273 55.043L26.8594 55.9746C26.6055 56.334 26.2617 56.6152 25.8281 56.8184C25.3945 57.0176 24.9141 57.1172 24.3867 57.1172ZM24.1934 51.9141C23.8574 51.9141 23.584 52.0273 23.373 52.2539C23.166 52.4805 23.0332 52.8047 22.9746 53.2266H25.3301V53.0918C25.3223 52.7168 25.2207 52.4277 25.0254 52.2246C24.8301 52.0176 24.5527 51.9141 24.1934 51.9141ZM30.3883 49.1016V50.6602H31.4723V51.9023H30.3883V55.0664C30.3883 55.3008 30.4332 55.4688 30.523 55.5703C30.6129 55.6719 30.7848 55.7227 31.0387 55.7227C31.2262 55.7227 31.3922 55.709 31.5367 55.6816V56.9648C31.2047 57.0664 30.8629 57.1172 30.5113 57.1172C29.3238 57.1172 28.7184 56.5176 28.6949 55.3184V51.9023H27.7691V50.6602H28.6949V49.1016H30.3883ZM35.7336 57.1172C34.8039 57.1172 34.0461 56.832 33.4602 56.2617C32.8781 55.6914 32.5871 54.9316 32.5871 53.9824V53.8184C32.5871 53.1816 32.7102 52.6133 32.9563 52.1133C33.2023 51.6094 33.55 51.2227 33.9992 50.9531C34.4523 50.6797 34.968 50.543 35.5461 50.543C36.4133 50.543 37.0949 50.8164 37.591 51.3633C38.091 51.9102 38.341 52.6855 38.341 53.6895V54.3809H34.3039C34.3586 54.7949 34.5227 55.127 34.7961 55.377C35.0734 55.627 35.423 55.752 35.8449 55.752C36.4973 55.752 37.007 55.5156 37.3742 55.043L38.2063 55.9746C37.9523 56.334 37.6086 56.6152 37.175 56.8184C36.7414 57.0176 36.2609 57.1172 35.7336 57.1172ZM35.5402 51.9141C35.2043 51.9141 34.9309 52.0273 34.7199 52.2539C34.5129 52.4805 34.3801 52.8047 34.3215 53.2266H36.677V53.0918C36.6691 52.7168 36.5676 52.4277 36.3723 52.2246C36.177 52.0176 35.8996 51.9141 35.5402 51.9141ZM42.3445 55.752C42.657 55.752 42.9109 55.666 43.1063 55.4941C43.3016 55.3223 43.4031 55.0938 43.4109 54.8086H44.9988C44.9949 55.2383 44.8777 55.6328 44.6473 55.9922C44.4168 56.3477 44.1004 56.625 43.698 56.8242C43.2996 57.0195 42.8582 57.1172 42.3738 57.1172C41.4676 57.1172 40.7527 56.8301 40.2293 56.2559C39.7059 55.6777 39.4441 54.8809 39.4441 53.8652V53.7539C39.4441 52.7773 39.7039 51.998 40.2234 51.416C40.743 50.834 41.4559 50.543 42.3621 50.543C43.1551 50.543 43.7898 50.7695 44.2664 51.2227C44.7469 51.6719 44.991 52.2715 44.9988 53.0215H43.4109C43.4031 52.6934 43.3016 52.4277 43.1063 52.2246C42.9109 52.0176 42.6531 51.9141 42.3328 51.9141C41.9383 51.9141 41.6395 52.0586 41.4363 52.3477C41.2371 52.6328 41.1375 53.0977 41.1375 53.7422V53.918C41.1375 54.5703 41.2371 55.0391 41.4363 55.3242C41.6355 55.6094 41.9383 55.752 42.3445 55.752ZM48.393 49.1016V50.6602H49.477V51.9023H48.393V55.0664C48.393 55.3008 48.4379 55.4688 48.5277 55.5703C48.6176 55.6719 48.7895 55.7227 49.0434 55.7227C49.2309 55.7227 49.3969 55.709 49.5414 55.6816V56.9648C49.2094 57.0664 48.8676 57.1172 48.516 57.1172C47.3285 57.1172 46.723 56.5176 46.6996 55.3184V51.9023H45.7738V50.6602H46.6996V49.1016H48.393ZM54.4941 57C54.416 56.8477 54.3594 56.6582 54.3242 56.4316C53.9141 56.8887 53.3809 57.1172 52.7246 57.1172C52.1035 57.1172 51.5879 56.9375 51.1777 56.5781C50.7715 56.2188 50.5684 55.7656 50.5684 55.2188C50.5684 54.5469 50.8164 54.0312 51.3125 53.6719C51.8125 53.3125 52.5332 53.1309 53.4746 53.127H54.2539V52.7637C54.2539 52.4707 54.1777 52.2363 54.0254 52.0605C53.877 51.8848 53.6406 51.7969 53.3164 51.7969C53.0312 51.7969 52.8066 51.8652 52.6426 52.002C52.4824 52.1387 52.4023 52.3262 52.4023 52.5645H50.709C50.709 52.1973 50.8223 51.8574 51.0488 51.5449C51.2754 51.2324 51.5957 50.9883 52.0098 50.8125C52.4238 50.6328 52.8887 50.543 53.4043 50.543C54.1855 50.543 54.8047 50.7402 55.2617 51.1348C55.7227 51.5254 55.9531 52.0762 55.9531 52.7871V55.5352C55.957 56.1367 56.041 56.5918 56.2051 56.9004V57H54.4941ZM53.0938 55.8223C53.3438 55.8223 53.5742 55.7676 53.7852 55.6582C53.9961 55.5449 54.1523 55.3945 54.2539 55.207V54.1172H53.6211C52.7734 54.1172 52.3223 54.4102 52.2676 54.9961L52.2617 55.0957C52.2617 55.3066 52.3359 55.4805 52.4844 55.6172C52.6328 55.7539 52.8359 55.8223 53.0938 55.8223ZM61.2164 52.248C60.9859 52.2168 60.7828 52.2012 60.607 52.2012C59.9664 52.2012 59.5465 52.418 59.3473 52.8516V57H57.6539V50.6602H59.2535L59.3004 51.416C59.6402 50.834 60.1109 50.543 60.7125 50.543C60.9 50.543 61.0758 50.5684 61.2398 50.6191L61.2164 52.248Z" fill="#44F0D6"/>
<path d="M41.9967 28.0351C41.76 29.2705 41.0809 30.3772 40.0866 31.1476C39.0923 31.9181 37.8511 32.2994 36.5958 32.2201C35.3404 32.1408 34.1571 31.6063 33.2676 30.7169C32.3782 29.8274 31.8437 28.6441 31.7644 27.3887C31.6851 26.1334 32.0664 24.8922 32.8369 23.8979C33.6073 22.9036 34.714 22.2244 35.9494 21.9878C37.1848 21.7512 38.4641 21.9733 39.5475 22.6125L40.4789 21.6683C39.1596 20.7979 37.5643 20.4482 36.0019 20.687C34.4396 20.9258 33.0215 21.736 32.0224 22.9606C31.0233 24.1853 30.5144 25.7372 30.5943 27.3156C30.6741 28.8941 31.3371 30.3867 32.4546 31.5043C33.5722 32.6219 35.0648 33.2848 36.6433 33.3647C38.2218 33.4445 39.7737 32.9356 40.9984 31.9366C42.223 30.9375 43.0332 29.5194 43.272 27.957C43.5107 26.3947 43.161 24.7993 42.2907 23.4801L41.372 24.437C42.0112 25.5204 42.2333 26.7997 41.9967 28.0351Z" fill="#44F0D6"/>
<path d="M31.1208 21.6562C31.4439 21.4403 31.6958 21.1334 31.8445 20.7744C31.9932 20.4153 32.0321 20.0202 31.9563 19.6391C31.8805 19.2579 31.6934 18.9078 31.4186 18.633C31.1438 18.3582 30.7937 18.1711 30.4125 18.0953C30.0314 18.0195 29.6363 18.0584 29.2773 18.2071C28.9182 18.3558 28.6113 18.6077 28.3954 18.9308C28.1795 19.2539 28.0643 19.6338 28.0643 20.0224C28.0643 20.5435 28.2713 21.0433 28.6398 21.4118C29.0083 21.7803 29.5081 21.9873 30.0292 21.9873V21.9873C30.4178 21.9873 30.7977 21.8721 31.1208 21.6562Z" fill="#44F0D6"/>
<path d="M45.1558 34.4152C45.4789 34.1993 45.7308 33.8924 45.8795 33.5334C46.0282 33.1743 46.0671 32.7793 45.9913 32.3981C45.9155 32.017 45.7283 31.6669 45.4535 31.3921C45.1787 31.1173 44.8286 30.9301 44.4475 30.8543C44.0663 30.7785 43.6712 30.8174 43.3122 30.9661C42.9532 31.1148 42.6463 31.3667 42.4304 31.6898C42.2145 32.0129 42.0993 32.3928 42.0993 32.7815C42.0993 33.3026 42.3063 33.8024 42.6748 34.1708C43.0432 34.5393 43.543 34.7463 44.0641 34.7463C44.4528 34.7463 44.8327 34.6311 45.1558 34.4152Z" fill="#44F0D6"/>
<path d="M28.569 37.8091C28.8921 37.5932 29.144 37.2863 29.2927 36.9273C29.4414 36.5682 29.4803 36.1732 29.4045 35.792C29.3287 35.4109 29.1416 35.0607 28.8668 34.786C28.592 34.5112 28.2419 34.324 27.8607 34.2482C27.4796 34.1724 27.0845 34.2113 26.7254 34.36C26.3664 34.5087 26.0595 34.7606 25.8436 35.0837C25.6277 35.4068 25.5125 35.7867 25.5125 36.1753C25.5125 36.6965 25.7195 37.1962 26.088 37.5647C26.4565 37.9332 26.9563 38.1402 27.4774 38.1402V38.1402C27.866 38.1402 28.2459 38.025 28.569 37.8091Z" fill="#44F0D6"/>
<path d="M46.8421 16.9099C46.7644 16.8775 46.681 16.8608 46.5968 16.8608C46.5126 16.8608 46.4292 16.8775 46.3515 16.9099C46.2737 16.9423 46.2032 16.9897 46.1439 17.0495L38.2715 24.7943C37.8851 24.5649 37.445 24.4417 36.9956 24.437C36.4332 24.4336 35.8855 24.6161 35.4375 24.9561C34.9895 25.2961 34.6664 25.7746 34.5184 26.3171C34.3703 26.8597 34.4057 27.436 34.619 27.9564C34.8322 28.4768 35.2114 28.9122 35.6976 29.1948C36.1838 29.4775 36.7498 29.5916 37.3075 29.5195C37.8653 29.4474 38.3836 29.193 38.7819 28.7959C39.1801 28.3989 39.4361 27.8813 39.5099 27.3238C39.5838 26.7663 39.4714 26.2 39.1902 25.7129L47.037 17.9682C47.0996 17.9095 47.1497 17.8389 47.1843 17.7604C47.219 17.6819 47.2374 17.5973 47.2386 17.5116C47.2398 17.4258 47.2237 17.3407 47.1912 17.2613C47.1588 17.1819 47.1107 17.1099 47.0497 17.0495V17.0495C46.9904 16.9897 46.9199 16.9423 46.8421 16.9099Z" fill="#44F0D6"/>
<path d="M24.2366 26.9889C24.2389 24.5763 24.9252 22.2139 26.2158 20.1756C27.5064 18.1374 29.3484 16.5068 31.5282 15.473C33.708 14.4392 36.1362 14.0445 38.5312 14.3349C40.9261 14.6252 43.1897 15.5886 45.0593 17.1133L45.659 16.5137C45.7735 16.4139 45.9026 16.3321 46.0418 16.2712C43.4587 14.1098 40.1845 12.9493 36.8168 13.0017C33.4491 13.0541 30.2125 14.3158 27.6979 16.5565C25.1832 18.7972 23.5583 21.8675 23.1196 25.2069C22.6809 28.5464 23.4578 31.9322 25.3083 34.7464C25.5512 34.3782 25.8853 34.0793 26.278 33.8787V33.8787C24.9448 31.8282 24.2357 29.4347 24.2366 26.9889Z" fill="#44F0D6"/>
<path d="M47.4708 18.3254L46.8711 18.9251C48.8 21.309 49.8057 24.3079 49.7043 27.3727C49.6029 30.4376 48.401 33.3633 46.3187 35.6145C44.2364 37.8656 41.4131 39.2915 38.3654 39.6312C35.3178 39.9708 32.2497 39.2015 29.7229 37.464C29.5039 37.8379 29.1974 38.1532 28.8298 38.3827C31.6097 40.3255 34.9991 41.1959 38.3711 40.8331C41.7431 40.4703 44.8697 38.8987 47.1727 36.409C49.4757 33.9193 50.7992 30.6799 50.8986 27.2899C50.998 23.8998 49.8664 20.5885 47.7132 17.9682V17.9427C47.6523 18.0818 47.5706 18.2109 47.4708 18.3254Z" fill="#44F0D6"/>
<path d="M37.5018 18.1237C39.2506 18.2237 40.9305 18.84 42.3289 19.8948L43.2476 18.9889C41.4711 17.571 39.2685 16.7933 36.9956 16.7816C35.1993 16.7827 33.4363 17.2675 31.892 18.1851C32.1986 18.5037 32.4106 18.9013 32.5044 19.3334C34.0139 18.4448 35.7531 18.0238 37.5018 18.1237Z" fill="#44F0D6"/>
<path d="M46.2204 31.3269C47.0291 29.6272 47.3477 27.7357 47.1404 25.8649C46.933 23.994 46.2079 22.2182 45.0466 20.7369L44.1407 21.6555C45.0726 22.9014 45.6629 24.3691 45.8531 25.9132C46.0433 27.4574 45.8269 29.0245 45.2252 30.4593V30.4593C45.6257 30.6586 45.9683 30.9573 46.2204 31.3269Z" fill="#44F0D6"/>
<path d="M36.352 35.8057C34.3535 35.636 32.4703 34.7986 31.0056 33.4282C29.541 32.0579 28.5803 30.2345 28.2782 28.2517C27.976 26.2688 28.3501 24.242 29.3402 22.4977C28.9081 22.4039 28.5105 22.1919 28.1919 21.8853C27.2743 23.4296 26.7895 25.1925 26.7884 26.9889C26.7884 29.696 27.8638 32.2923 29.778 34.2065C31.6923 36.1207 34.2885 37.1961 36.9956 37.1961C39.1806 37.197 41.3071 36.4897 43.0562 35.1802C42.6462 35.0031 42.2898 34.7215 42.0227 34.3636V34.3636C40.348 35.4674 38.3506 35.9754 36.352 35.8057Z" fill="#44F0D6"/>
</svg>
