<svg width="65" height="65" viewBox="0 0 65 65" fill="none" xmlns="http://www.w3.org/2000/svg">
<path d="M10.8333 25.3333C11.4079 25.3333 11.959 25.1051 12.3654 24.6987C12.7717 24.2924 13 23.7413 13 23.1667V12.3333H23.8333C24.4079 12.3333 24.959 12.1051 25.3654 11.6987C25.7717 11.2924 26 10.7413 26 10.1667C26 9.59203 25.7717 9.04093 25.3654 8.6346C24.959 8.22827 24.4079 8 23.8333 8H10.8333C10.2587 8 9.70756 8.22827 9.30123 8.6346C8.8949 9.04093 8.66663 9.59203 8.66663 10.1667V23.1667C8.66663 23.7413 8.8949 24.2924 9.30123 24.6987C9.70756 25.1051 10.2587 25.3333 10.8333 25.3333Z" fill="#23D1B7"/>
<path d="M41.1667 12.3333H52V23.1667C52 23.7413 52.2283 24.2924 52.6346 24.6987C53.0409 25.1051 53.592 25.3333 54.1667 25.3333C54.7413 25.3333 55.2924 25.1051 55.6987 24.6987C56.1051 24.2924 56.3333 23.7413 56.3333 23.1667V10.1667C56.3333 9.59203 56.1051 9.04093 55.6987 8.6346C55.2924 8.22827 54.7413 8 54.1667 8H41.1667C40.592 8 40.0409 8.22827 39.6346 8.6346C39.2283 9.04093 39 9.59203 39 10.1667C39 10.7413 39.2283 11.2924 39.6346 11.6987C40.0409 12.1051 40.592 12.3333 41.1667 12.3333Z" fill="#23D1B7"/>
<path d="M23.8333 51.3333H13V40.5C13 39.9254 12.7717 39.3743 12.3654 38.9679C11.959 38.5616 11.4079 38.3333 10.8333 38.3333C10.2587 38.3333 9.70756 38.5616 9.30123 38.9679C8.8949 39.3743 8.66663 39.9254 8.66663 40.5V53.5C8.66663 54.0746 8.8949 54.6257 9.30123 55.0321C9.70756 55.4384 10.2587 55.6667 10.8333 55.6667H23.8333C24.4079 55.6667 24.959 55.4384 25.3654 55.0321C25.7717 54.6257 26 54.0746 26 53.5C26 52.9254 25.7717 52.3743 25.3654 51.9679C24.959 51.5616 24.4079 51.3333 23.8333 51.3333Z" fill="#23D1B7"/>
<path d="M54.1667 38.3333C53.592 38.3333 53.0409 38.5616 52.6346 38.9679C52.2283 39.3743 52 39.9254 52 40.5V51.3333H41.1667C40.592 51.3333 40.0409 51.5616 39.6346 51.9679C39.2283 52.3743 39 52.9254 39 53.5C39 54.0746 39.2283 54.6257 39.6346 55.0321C40.0409 55.4384 40.592 55.6667 41.1667 55.6667H54.1667C54.7413 55.6667 55.2924 55.4384 55.6987 55.0321C56.1051 54.6257 56.3333 54.0746 56.3333 53.5V40.5C56.3333 39.9254 56.1051 39.3743 55.6987 38.9679C55.2924 38.5616 54.7413 38.3333 54.1667 38.3333Z" fill="#23D1B7"/>
<path d="M62.8333 29.6667H2.16667C1.59203 29.6667 1.04093 29.8949 0.634602 30.3013C0.228273 30.7076 0 31.2587 0 31.8333C0 32.408 0.228273 32.9591 0.634602 33.3654C1.04093 33.7717 1.59203 34 2.16667 34H62.8333C63.408 34 63.9591 33.7717 64.3654 33.3654C64.7717 32.9591 65 32.408 65 31.8333C65 31.2587 64.7717 30.7076 64.3654 30.3013C63.9591 29.8949 63.408 29.6667 62.8333 29.6667Z" fill="#23D1B7"/>
</svg>
