<svg width="48" height="48" viewBox="0 0 48 48" fill="none" xmlns="http://www.w3.org/2000/svg">
<path d="M33.9071 3.2374L34.036 3.29907C38.2417 5.3419 41.7325 8.63008 44.0274 12.6836L44.0279 12.6845C44.1259 12.8572 44.2217 13.0319 44.3164 13.2088C44.4433 13.4477 44.5658 13.6873 44.6832 13.9285L44.6837 13.9294C46.1672 16.9697 47 20.3858 47 24C47 36.7026 36.7026 47 24 47C11.2974 47 1 36.7026 1 24C1 11.2974 11.2974 1 24 1C27.5496 1 30.9084 1.80281 33.9071 3.2374Z" stroke="#23D1B7" stroke-width="2"/>
<path d="M45.1982 12.7377L23.9999 24L34.3384 2.33549H34.3394C38.9758 4.55231 42.7903 8.214 45.1982 12.7377Z" fill="#23D1B7"/>
<path d="M23.9995 37.1054C16.8426 37.1054 11.02 31.2828 11.02 24.1259C11.02 16.9689 16.8426 11.1464 23.9995 11.1464C31.1564 11.1464 36.979 16.9689 36.979 24.1259C36.979 31.2828 31.1564 37.1054 23.9995 37.1054V37.1054ZM23.9995 12.6158C17.6528 12.6158 12.4894 17.7792 12.4894 24.1259C12.4894 30.4726 17.6528 35.636 23.9995 35.636C30.3462 35.636 35.5096 30.4725 35.5096 24.1259C35.5096 17.7793 30.3462 12.6158 23.9995 12.6158V12.6158Z" fill="#23D1B7"/>
<path d="M23.9995 31.2279C20.0835 31.2279 16.8975 28.0419 16.8975 24.1258C16.8975 20.2097 20.0834 17.0238 23.9995 17.0238C27.9156 17.0238 31.1015 20.2097 31.1015 24.1258C31.1015 28.0419 27.9155 31.2279 23.9995 31.2279ZM23.9995 18.4933C20.8936 18.4933 18.3669 21.0202 18.3669 24.1259C18.3669 27.2317 20.8937 29.7585 23.9995 29.7585C27.1052 29.7585 29.6321 27.2317 29.6321 24.1259C29.6321 21.0202 27.1052 18.4933 23.9995 18.4933V18.4933Z" fill="#23D1B7"/>
<path d="M23.9995 20.3391C25.4941 20.3391 26.7057 19.1275 26.7057 17.6329C26.7057 16.1383 25.4941 14.9267 23.9995 14.9267C22.5049 14.9267 21.2933 16.1383 21.2933 17.6329C21.2933 19.1275 22.5049 20.3391 23.9995 20.3391Z" fill="#23D1B7"/>
<path d="M14.3982 33.9638C15.8928 33.9638 17.1044 32.7522 17.1044 31.2576C17.1044 29.763 15.8928 28.5514 14.3982 28.5514C12.9036 28.5514 11.692 29.763 11.692 31.2576C11.692 32.7522 12.9036 33.9638 14.3982 33.9638Z" fill="#23D1B7"/>
<path d="M23.9995 42.9829C13.6017 42.9829 5.14258 34.5236 5.14258 24.1259C5.14258 13.7282 13.6017 5.26894 23.9995 5.26894C34.3974 5.26894 42.8565 13.7282 42.8565 24.1259C42.8565 34.5236 34.3974 42.9829 23.9995 42.9829V42.9829ZM23.9995 6.73828C14.412 6.73828 6.61192 14.5384 6.61192 24.1259C6.61192 33.7134 14.412 41.5135 23.9995 41.5135C33.5871 41.5135 41.3872 33.7134 41.3872 24.1259C41.3872 14.5384 33.5871 6.73828 23.9995 6.73828V6.73828Z" fill="#23D1B7"/>
<path d="M45.5823 13.4909L24.3438 24.7748C24.2341 24.8326 24.1166 24.8611 23.9999 24.8611C23.7374 24.8611 23.4827 24.7191 23.3504 24.4702C23.1604 24.1127 23.2965 23.6679 23.6551 23.477L44.8976 12.1911C45.0004 12.3723 45.1004 12.5545 45.1983 12.7377C45.3306 12.9864 45.4589 13.2372 45.5823 13.4909V13.4909Z" fill="#0F131E"/>
<path d="M42.1218 26.7063C43.6164 26.7063 44.828 25.4947 44.828 24.0001C44.828 22.5055 43.6164 21.2939 42.1218 21.2939C40.6273 21.2939 39.4156 22.5055 39.4156 24.0001C39.4156 25.4947 40.6273 26.7063 42.1218 26.7063Z" fill="#23D1B7"/>
<path d="M9.98072 15.3958C11.4753 15.3958 12.6869 14.1842 12.6869 12.6896C12.6869 11.195 11.4753 9.98344 9.98072 9.98344C8.48614 9.98344 7.27454 11.195 7.27454 12.6896C7.27454 14.1842 8.48614 15.3958 9.98072 15.3958Z" fill="#23D1B7"/>
</svg>
