<svg width="65" height="65" viewBox="0 0 65 65" fill="none" xmlns="http://www.w3.org/2000/svg">
<path d="M41.6004 36.1624C41.6004 34.1371 40.9474 32.2605 39.8479 30.7395C37.1447 26.9947 35.3839 24.2005 35.3839 19.5877V19.1083H35.4004C36.2602 19.1083 36.9546 18.4139 36.9546 17.5541C36.9546 16.6944 36.2602 16 35.4004 16H35.3839H29.2004C28.3407 16 27.6463 16.6944 27.6463 17.5541C27.6463 18.4056 28.3407 19.1 29.1922 19.1C29.1674 23.6797 27.8778 26.7715 25.0092 30.384C23.389 32.4176 22.6119 35.1539 23.1906 38.0637C23.6866 40.552 25.2407 42.6931 27.3404 44.0157C26.6378 44.148 26.1004 44.7349 26.1004 45.4789C26.1004 46.3221 26.7783 47 27.6215 47H36.9794C37.8226 47 38.5004 46.3221 38.5004 45.4789C38.5004 44.7349 37.9548 44.148 37.2522 44.0157C39.8644 42.3789 41.6004 39.4691 41.6004 36.1624Z" fill="#23D1B7"/>
<path d="M11.1818 25.4545C11.7605 25.4545 12.3154 25.2247 12.7246 24.8155C13.1338 24.4063 13.3636 23.8514 13.3636 23.2727V12.3636H24.2727C24.8514 12.3636 25.4063 12.1338 25.8155 11.7246C26.2247 11.3154 26.4545 10.7605 26.4545 10.1818C26.4545 9.60316 26.2247 9.04821 25.8155 8.63904C25.4063 8.22987 24.8514 8 24.2727 8H11.1818C10.6032 8 10.0482 8.22987 9.63904 8.63904C9.22987 9.04821 9 9.60316 9 10.1818V23.2727C9 23.8514 9.22987 24.4063 9.63904 24.8155C10.0482 25.2247 10.6032 25.4545 11.1818 25.4545Z" fill="#23D1B7"/>
<path d="M41.7272 12.3636H52.6363V23.2727C52.6363 23.8514 52.8662 24.4063 53.2753 24.8155C53.6845 25.2247 54.2395 25.4545 54.8181 25.4545C55.3968 25.4545 55.9517 25.2247 56.3609 24.8155C56.7701 24.4063 56.9999 23.8514 56.9999 23.2727V10.1818C56.9999 9.60316 56.7701 9.04821 56.3609 8.63904C55.9517 8.22987 55.3968 8 54.8181 8H41.7272C41.1486 8 40.5936 8.22987 40.1844 8.63904C39.7753 9.04821 39.5454 9.60316 39.5454 10.1818C39.5454 10.7605 39.7753 11.3154 40.1844 11.7246C40.5936 12.1338 41.1486 12.3636 41.7272 12.3636Z" fill="#23D1B7"/>
<path d="M24.2727 51.6363H13.3636V40.7272C13.3636 40.1486 13.1338 39.5936 12.7246 39.1845C12.3154 38.7753 11.7605 38.5454 11.1818 38.5454C10.6032 38.5454 10.0482 38.7753 9.63904 39.1845C9.22987 39.5936 9 40.1486 9 40.7272V53.8181C9 54.3968 9.22987 54.9518 9.63904 55.3609C10.0482 55.7701 10.6032 56 11.1818 56H24.2727C24.8514 56 25.4063 55.7701 25.8155 55.3609C26.2247 54.9518 26.4545 54.3968 26.4545 53.8181C26.4545 53.2395 26.2247 52.6845 25.8155 52.2754C25.4063 51.8662 24.8514 51.6363 24.2727 51.6363Z" fill="#23D1B7"/>
<path d="M54.8181 38.5454C54.2395 38.5454 53.6845 38.7753 53.2753 39.1845C52.8662 39.5936 52.6363 40.1486 52.6363 40.7272V51.6363H41.7272C41.1486 51.6363 40.5936 51.8662 40.1844 52.2754C39.7753 52.6845 39.5454 53.2395 39.5454 53.8181C39.5454 54.3968 39.7753 54.9518 40.1844 55.3609C40.5936 55.7701 41.1486 56 41.7272 56H54.8181C55.3968 56 55.9517 55.7701 56.3609 55.3609C56.7701 54.9518 56.9999 54.3968 56.9999 53.8181V40.7272C56.9999 40.1486 56.7701 39.5936 56.3609 39.1845C55.9517 38.7753 55.3968 38.5454 54.8181 38.5454Z" fill="#23D1B7"/>
</svg>
