<svg width="75" height="75" viewBox="0 0 75 75" fill="none" xmlns="http://www.w3.org/2000/svg">
<path fill-rule="evenodd" clip-rule="evenodd" d="M28 23.218C28 31.4274 36.4749 39.4432 36.8358 39.7805C37.0005 39.9342 37.206 40.0113 37.4118 40.0113C37.6175 40.0113 37.8232 39.9343 37.9878 39.7805C38.3484 39.4433 46.8235 31.4275 46.8235 23.218C46.8235 17.7081 42.6014 13.2255 37.4118 13.2255C32.2221 13.2255 28 17.7081 28 23.218ZM40.7906 24.8455L41.2902 27.9444C41.3462 28.2915 41.2116 28.6421 40.943 28.849C40.7912 28.9658 40.6118 29.0252 40.4312 29.0252C40.2922 29.0252 40.1527 28.9899 40.025 28.9185L37.4119 27.4567L34.7987 28.9185C34.5051 29.0828 34.1492 29.0556 33.8806 28.849C33.6121 28.6421 33.4775 28.2914 33.5334 27.9444L34.0331 24.8455L31.9171 22.651C31.68 22.4051 31.5948 22.0378 31.6975 21.7033C31.8 21.3688 32.0726 21.125 32.4005 21.0742L35.3226 20.6225L36.63 17.804C36.7766 17.4878 37.0797 17.2876 37.4118 17.2876C37.7438 17.2876 38.047 17.4878 38.1936 17.804L39.501 20.6226L42.4231 21.0743C42.751 21.1251 43.0236 21.3689 43.1261 21.7034C43.2287 22.0378 43.1436 22.4051 42.9066 22.651L40.7906 24.8455Z" fill="white"/>
<path d="M7.51172 48.4688L10.3008 55.4297L13.0898 48.4688H14.5488V57H13.4238V53.6777L13.5293 50.0918L10.7285 57H9.86719L7.07227 50.1094L7.18359 53.6777V57H6.05859V48.4688H7.51172ZM17.943 57H16.859V50.6602H17.943V57ZM16.7711 48.9785C16.7711 48.8027 16.8238 48.6543 16.9293 48.5332C17.0387 48.4121 17.1988 48.3516 17.4098 48.3516C17.6207 48.3516 17.7809 48.4121 17.8902 48.5332C17.9996 48.6543 18.0543 48.8027 18.0543 48.9785C18.0543 49.1543 17.9996 49.3008 17.8902 49.418C17.7809 49.5352 17.6207 49.5938 17.4098 49.5938C17.1988 49.5938 17.0387 49.5352 16.9293 49.418C16.8238 49.3008 16.7711 49.1543 16.7711 48.9785ZM23.7746 55.3184C23.7746 55.0254 23.6633 54.7988 23.4406 54.6387C23.2219 54.4746 22.8371 54.334 22.2863 54.2168C21.7395 54.0996 21.3039 53.959 20.9797 53.7949C20.6594 53.6309 20.4211 53.4355 20.2648 53.209C20.1125 52.9824 20.0363 52.7129 20.0363 52.4004C20.0363 51.8809 20.2551 51.4414 20.6926 51.082C21.134 50.7227 21.6965 50.543 22.3801 50.543C23.0988 50.543 23.6809 50.7285 24.1262 51.0996C24.5754 51.4707 24.8 51.9453 24.8 52.5234H23.7102C23.7102 52.2266 23.5832 51.9707 23.3293 51.7559C23.0793 51.541 22.7629 51.4336 22.3801 51.4336C21.9855 51.4336 21.677 51.5195 21.4543 51.6914C21.2316 51.8633 21.1203 52.0879 21.1203 52.3652C21.1203 52.627 21.2238 52.8242 21.4309 52.957C21.6379 53.0898 22.0109 53.2168 22.55 53.3379C23.093 53.459 23.5324 53.6035 23.8684 53.7715C24.2043 53.9395 24.4523 54.1426 24.6125 54.3809C24.7766 54.6152 24.8586 54.9023 24.8586 55.2422C24.8586 55.8086 24.632 56.2637 24.1789 56.6074C23.7258 56.9473 23.1379 57.1172 22.4152 57.1172C21.9074 57.1172 21.4582 57.0273 21.0676 56.8477C20.677 56.668 20.3703 56.418 20.1477 56.0977C19.9289 55.7734 19.8195 55.4238 19.8195 55.0488H20.9035C20.923 55.4121 21.0676 55.7012 21.3371 55.916C21.6105 56.127 21.9699 56.2324 22.4152 56.2324C22.8254 56.2324 23.1535 56.1504 23.3996 55.9863C23.6496 55.8184 23.7746 55.5957 23.7746 55.3184ZM31.225 57H30.141V48H31.225V57ZM37.2793 56.373C36.8574 56.8691 36.2383 57.1172 35.4219 57.1172C34.7461 57.1172 34.2305 56.9219 33.875 56.5312C33.5234 56.1367 33.3457 55.5547 33.3418 54.7852V50.6602H34.4258V54.7559C34.4258 55.7168 34.8164 56.1973 35.5977 56.1973C36.4258 56.1973 36.9766 55.8887 37.25 55.2715V50.6602H38.334V57H37.3027L37.2793 56.373ZM40.1285 53.7773C40.1285 52.7891 40.357 52.0039 40.8141 51.4219C41.2711 50.8359 41.8766 50.543 42.6305 50.543C43.4039 50.543 44.0074 50.8164 44.441 51.3633L44.4938 50.6602H45.484V56.8477C45.484 57.668 45.2398 58.3145 44.7516 58.7871C44.2672 59.2598 43.6148 59.4961 42.7945 59.4961C42.3375 59.4961 41.8902 59.3984 41.4527 59.2031C41.0152 59.0078 40.6813 58.7402 40.4508 58.4004L41.0133 57.75C41.4781 58.3242 42.0465 58.6113 42.7184 58.6113C43.2457 58.6113 43.6559 58.4629 43.9488 58.166C44.2457 57.8691 44.3941 57.4512 44.3941 56.9121V56.3672C43.9605 56.8672 43.3688 57.1172 42.6188 57.1172C41.8766 57.1172 41.275 56.8184 40.8141 56.2207C40.357 55.623 40.1285 54.8086 40.1285 53.7773ZM41.2184 53.9004C41.2184 54.6152 41.3648 55.1777 41.6578 55.5879C41.9508 55.9941 42.3609 56.1973 42.8883 56.1973C43.5719 56.1973 44.0738 55.8867 44.3941 55.2656V52.3711C44.0621 51.7656 43.5641 51.4629 42.9 51.4629C42.3727 51.4629 41.9605 51.668 41.6637 52.0781C41.3668 52.4883 41.2184 53.0957 41.2184 53.9004ZM51.4387 57C51.3762 56.875 51.3254 56.6523 51.2863 56.332C50.7824 56.8555 50.1809 57.1172 49.4816 57.1172C48.8566 57.1172 48.343 56.9414 47.9406 56.5898C47.5422 56.2344 47.343 55.7852 47.343 55.2422C47.343 54.582 47.593 54.0703 48.093 53.707C48.5969 53.3398 49.3039 53.1562 50.2141 53.1562H51.2687V52.6582C51.2687 52.2793 51.1555 51.9785 50.9289 51.7559C50.7023 51.5293 50.3684 51.416 49.927 51.416C49.5402 51.416 49.216 51.5137 48.9543 51.709C48.6926 51.9043 48.5617 52.1406 48.5617 52.418H47.4719C47.4719 52.1016 47.5832 51.7969 47.8059 51.5039C48.0324 51.207 48.3371 50.9727 48.7199 50.8008C49.1066 50.6289 49.5305 50.543 49.9914 50.543C50.7219 50.543 51.2941 50.7266 51.7082 51.0938C52.1223 51.457 52.3371 51.959 52.3527 52.5996V55.5176C52.3527 56.0996 52.427 56.5625 52.5754 56.9062V57H51.4387ZM49.6398 56.1738C49.9797 56.1738 50.302 56.0859 50.6066 55.9102C50.9113 55.7344 51.132 55.5059 51.2687 55.2246V53.9238H50.4191C49.091 53.9238 48.427 54.3125 48.427 55.0898C48.427 55.4297 48.5402 55.6953 48.7668 55.8867C48.9934 56.0781 49.2844 56.1738 49.6398 56.1738ZM57.5164 51.6328C57.3523 51.6055 57.1746 51.5918 56.9832 51.5918C56.2723 51.5918 55.7898 51.8945 55.5359 52.5V57H54.452V50.6602H55.5066L55.5242 51.3926C55.8797 50.8262 56.3836 50.543 57.0359 50.543C57.2469 50.543 57.407 50.5703 57.5164 50.625V51.6328ZM61.432 57.1172C60.5727 57.1172 59.8734 56.8359 59.3344 56.2734C58.7953 55.707 58.5258 54.9512 58.5258 54.0059V53.8066C58.5258 53.1777 58.6449 52.6172 58.8832 52.125C59.1254 51.6289 59.4613 51.2422 59.891 50.9648C60.3246 50.6836 60.7934 50.543 61.2973 50.543C62.1215 50.543 62.7621 50.8145 63.2191 51.3574C63.6762 51.9004 63.9047 52.6777 63.9047 53.6895V54.1406H59.6098C59.6254 54.7656 59.807 55.2715 60.1547 55.6582C60.5062 56.041 60.9516 56.2324 61.4906 56.2324C61.8734 56.2324 62.1977 56.1543 62.4633 55.998C62.7289 55.8418 62.9613 55.6348 63.1605 55.377L63.8227 55.8926C63.2914 56.709 62.4945 57.1172 61.432 57.1172ZM61.2973 51.4336C60.8598 51.4336 60.4926 51.5938 60.1957 51.9141C59.8988 52.2305 59.7152 52.6758 59.6449 53.25H62.8207V53.168C62.7895 52.6172 62.641 52.1914 62.3754 51.8906C62.1098 51.5859 61.7504 51.4336 61.2973 51.4336ZM69.2559 55.3184C69.2559 55.0254 69.1445 54.7988 68.9219 54.6387C68.7031 54.4746 68.3184 54.334 67.7676 54.2168C67.2207 54.0996 66.7852 53.959 66.4609 53.7949C66.1406 53.6309 65.9023 53.4355 65.7461 53.209C65.5938 52.9824 65.5176 52.7129 65.5176 52.4004C65.5176 51.8809 65.7363 51.4414 66.1738 51.082C66.6152 50.7227 67.1777 50.543 67.8613 50.543C68.5801 50.543 69.1621 50.7285 69.6074 51.0996C70.0566 51.4707 70.2812 51.9453 70.2812 52.5234H69.1914C69.1914 52.2266 69.0645 51.9707 68.8105 51.7559C68.5605 51.541 68.2441 51.4336 67.8613 51.4336C67.4668 51.4336 67.1582 51.5195 66.9355 51.6914C66.7129 51.8633 66.6016 52.0879 66.6016 52.3652C66.6016 52.627 66.7051 52.8242 66.9121 52.957C67.1191 53.0898 67.4922 53.2168 68.0312 53.3379C68.5742 53.459 69.0137 53.6035 69.3496 53.7715C69.6855 53.9395 69.9336 54.1426 70.0938 54.3809C70.2578 54.6152 70.3398 54.9023 70.3398 55.2422C70.3398 55.8086 70.1133 56.2637 69.6602 56.6074C69.207 56.9473 68.6191 57.1172 67.8965 57.1172C67.3887 57.1172 66.9395 57.0273 66.5488 56.8477C66.1582 56.668 65.8516 56.418 65.6289 56.0977C65.4102 55.7734 65.3008 55.4238 65.3008 55.0488H66.3848C66.4043 55.4121 66.5488 55.7012 66.8184 55.916C67.0918 56.127 67.4512 56.2324 67.8965 56.2324C68.3066 56.2324 68.6348 56.1504 68.8809 55.9863C69.1309 55.8184 69.2559 55.5957 69.2559 55.3184Z" fill="white"/>
</svg>
